<?xml version="1.0" encoding="utf-8"?>
<svg width="100px" height="100px" viewbox="0 0 100 100" version="1.1" xmlns:xlink="http://www.w3.org/1999/xlink" xmlns="http://www.w3.org/2000/svg">
  <g id="ListLogo">
    <path d="M9.999 0L70.001 0Q70.2465 0 70.4916 0.0120442Q70.7368 0.0240885 70.9811 0.0481479Q71.2253 0.0722074 71.4681 0.108224Q71.711 0.144241 71.9517 0.192128Q72.1924 0.240015 72.4305 0.299657Q72.6686 0.3593 72.9035 0.430553Q73.1384 0.501807 73.3696 0.584501Q73.6007 0.667194 73.8274 0.761128Q74.0542 0.855062 74.2761 0.960011Q74.498 1.06496 74.7145 1.18067Q74.931 1.29638 75.1415 1.42257Q75.352 1.54876 75.5561 1.68514Q75.7602 1.82151 75.9574 1.96773Q76.1545 2.11395 76.3443 2.26967Q76.534 2.42539 76.7159 2.59023Q76.8978 2.75507 77.0714 2.92864Q77.2449 3.10221 77.4098 3.28408Q77.5746 3.46596 77.7303 3.6557Q77.886 3.84545 78.0323 4.0426Q78.1785 4.23976 78.3149 4.44385Q78.4512 4.64795 78.5774 4.85849Q78.7036 5.06903 78.8193 5.2855Q78.935 5.50198 79.04 5.72388Q79.1449 5.94577 79.2389 6.17255Q79.3328 6.39932 79.4155 6.63044Q79.4982 6.86155 79.5694 7.09644Q79.6407 7.33134 79.7003 7.56944Q79.76 7.80755 79.8079 8.04829Q79.8558 8.28904 79.8918 8.53184Q79.9278 8.77465 79.9519 9.01893Q79.9759 9.26321 79.988 9.50837Q80 9.75354 80 9.999L80 70.001Q80 70.2465 79.988 70.4916Q79.9759 70.7368 79.9519 70.9811Q79.9278 71.2253 79.8918 71.4681Q79.8558 71.711 79.8079 71.9517Q79.76 72.1924 79.7003 72.4305Q79.6407 72.6686 79.5694 72.9035Q79.4982 73.1384 79.4155 73.3696Q79.3328 73.6007 79.2389 73.8274Q79.1449 74.0542 79.04 74.2761Q78.935 74.498 78.8193 74.7145Q78.7036 74.931 78.5774 75.1415Q78.4512 75.352 78.3149 75.5561Q78.1785 75.7602 78.0323 75.9574Q77.886 76.1545 77.7303 76.3443Q77.5746 76.534 77.4098 76.7159Q77.2449 76.8978 77.0714 77.0714Q76.8978 77.2449 76.7159 77.4098Q76.534 77.5746 76.3443 77.7303Q76.1545 77.886 75.9574 78.0323Q75.7602 78.1785 75.5561 78.3149Q75.352 78.4512 75.1415 78.5774Q74.931 78.7036 74.7145 78.8193Q74.498 78.935 74.2761 79.04Q74.0542 79.1449 73.8274 79.2389Q73.6007 79.3328 73.3696 79.4155Q73.1384 79.4982 72.9035 79.5694Q72.6687 79.6407 72.4305 79.7003Q72.1925 79.76 71.9517 79.8079Q71.711 79.8558 71.4681 79.8918Q71.2253 79.9278 70.9811 79.9519Q70.7368 79.9759 70.4916 79.988Q70.2465 80 70.001 80L9.999 80Q9.75354 80 9.50837 79.988Q9.26321 79.9759 9.01893 79.9519Q8.77465 79.9278 8.53184 79.8918Q8.28904 79.8558 8.04829 79.8079Q7.80755 79.76 7.56944 79.7003Q7.33134 79.6407 7.09644 79.5694Q6.86155 79.4982 6.63044 79.4155Q6.39932 79.3328 6.17255 79.2389Q5.94577 79.1449 5.72388 79.04Q5.50198 78.935 5.2855 78.8193Q5.06903 78.7036 4.85849 78.5774Q4.64795 78.4512 4.44385 78.3149Q4.23976 78.1785 4.0426 78.0323Q3.84545 77.886 3.6557 77.7303Q3.46596 77.5746 3.28408 77.4098Q3.10221 77.2449 2.92864 77.0714Q2.75507 76.8978 2.59023 76.7159Q2.42539 76.534 2.26967 76.3443Q2.11395 76.1545 1.96773 75.9574Q1.82151 75.7602 1.68514 75.5561Q1.54876 75.352 1.42257 75.1415Q1.29638 74.931 1.18067 74.7145Q1.06496 74.498 0.960011 74.2761Q0.855062 74.0542 0.761128 73.8274Q0.667194 73.6007 0.584501 73.3696Q0.501807 73.1384 0.430553 72.9035Q0.3593 72.6687 0.299657 72.4305Q0.240015 72.1925 0.192128 71.9517Q0.144241 71.711 0.108224 71.4681Q0.0722074 71.2253 0.0481479 70.9811Q0.0240885 70.7368 0.0120442 70.4916Q0 70.2465 0 70.001L0 9.999Q0 9.75354 0.0120442 9.50837Q0.0240885 9.26321 0.0481479 9.01893Q0.0722074 8.77465 0.108224 8.53184Q0.144241 8.28904 0.192128 8.04829Q0.240015 7.80755 0.299657 7.56944Q0.3593 7.33134 0.430553 7.09644Q0.501807 6.86155 0.584501 6.63044Q0.667194 6.39932 0.761128 6.17255Q0.855062 5.94577 0.960011 5.72388Q1.06496 5.50198 1.18067 5.2855Q1.29638 5.06903 1.42257 4.85849Q1.54876 4.64795 1.68514 4.44385Q1.82151 4.23976 1.96773 4.0426Q2.11395 3.84545 2.26967 3.6557Q2.42539 3.46596 2.59023 3.28408Q2.75507 3.10221 2.92864 2.92864Q3.10221 2.75507 3.28408 2.59023Q3.46596 2.42539 3.6557 2.26967Q3.84545 2.11395 4.0426 1.96773Q4.23976 1.82151 4.44385 1.68514Q4.64795 1.54876 4.85849 1.42257Q5.06903 1.29638 5.2855 1.18067Q5.50198 1.06496 5.72388 0.960011Q5.94577 0.855062 6.17255 0.761128Q6.39932 0.667194 6.63044 0.584501Q6.86155 0.501807 7.09644 0.430553Q7.33134 0.3593 7.56944 0.299657Q7.80755 0.240015 8.04829 0.192128Q8.28904 0.144241 8.53184 0.108224Q8.77465 0.0722074 9.01893 0.0481479Q9.26321 0.0240885 9.50837 0.0120442Q9.75354 0 9.999 0Z" transform="translate(10 10)" id="Box" fill="#FF3E00" fill-rule="evenodd" stroke="none" />
    <g id="Lines" transform="translate(25 25)">
      <path d="M0 0.980389L50 0.980389" transform="translate(0 48.039223)" id="Third-Line" fill="none" fill-rule="evenodd" stroke="#FFFFFF" stroke-width="10" stroke-linecap="round" />
      <path d="M0 0.980392L50 0.980392" transform="translate(0 23.960785)" id="Second-Line" fill="none" fill-rule="evenodd" stroke="#FFFFFF" stroke-width="10" stroke-linecap="round" />
      <path d="M0 0.980392L50 0.980392" id="First-Line" fill="none" fill-rule="evenodd" stroke="#FFFFFF" stroke-width="10" stroke-linecap="round" />
    </g>
  </g>
</svg>