<svg xmlns="http://www.w3.org/2000/svg" viewBox="0 0 80 80"><path fill="#ff3e00" fill-rule="evenodd" d="M9.999 0h60.002q.245 0 .49.012.246.012.49.036.244.024.487.06t.484.084q.24.048.478.108.239.06.473.13.235.072.467.155.23.082.457.176.227.094.45.199.221.105.438.22.216.116.426.243.211.126.415.262.204.137.401.283.198.146.387.302.19.155.372.32t.355.339q.174.173.339.355.165.182.32.372.156.19.302.387.147.197.283.4.136.205.262.415.127.211.242.427.116.217.221.439t.199.449q.094.226.176.457.083.232.154.466.072.235.131.473.06.239.108.48.048.24.084.483.036.243.06.487t.036.49q.012.245.012.49v60.002q0 .245-.012.49-.012.246-.036.49-.024.244-.06.487t-.084.484q-.048.24-.108.478-.06.239-.13.473-.072.235-.154.467-.083.23-.177.457-.094.227-.199.45-.105.221-.22.438-.116.216-.243.426-.126.211-.262.415t-.283.401q-.146.198-.302.387-.155.19-.32.372t-.339.355q-.173.174-.355.339-.182.165-.372.32-.19.156-.387.302-.197.147-.4.283-.205.136-.416.262-.21.127-.427.242-.216.116-.438.221t-.449.199q-.226.094-.457.176-.232.083-.467.154-.234.072-.473.131-.238.06-.478.108-.241.048-.484.084-.243.036-.487.06t-.49.036q-.245.012-.49.012H9.999q-.245 0-.49-.012-.246-.012-.49-.036-.244-.024-.487-.06t-.484-.084q-.24-.048-.479-.108-.238-.06-.473-.13-.234-.072-.466-.154-.23-.083-.457-.177-.227-.094-.45-.199-.221-.105-.438-.22-.216-.116-.427-.243-.21-.126-.414-.262t-.401-.283q-.198-.146-.387-.302-.19-.155-.372-.32t-.355-.339q-.174-.173-.339-.355-.165-.182-.32-.372-.156-.19-.302-.387t-.283-.4q-.136-.205-.262-.416-.127-.21-.242-.427-.116-.216-.221-.438t-.199-.449q-.094-.226-.176-.457-.083-.232-.154-.467-.072-.234-.131-.473-.06-.238-.108-.478-.048-.241-.084-.484-.036-.243-.06-.487t-.036-.49Q0 70.246 0 70.001V9.999q0-.245.012-.49.012-.246.036-.49.024-.244.06-.487t.084-.484q.048-.24.108-.479.06-.238.13-.473.072-.234.155-.466.082-.23.176-.457.094-.227.199-.45.105-.221.22-.438.116-.216.243-.427.126-.21.262-.414.137-.204.283-.401.146-.198.302-.387.155-.19.32-.372t.339-.355q.173-.174.355-.339.182-.165.372-.32.19-.156.387-.302t.4-.283q.205-.136.415-.262.211-.127.427-.242.217-.116.439-.221t.449-.199q.226-.094.457-.176.232-.083.466-.154.235-.072.473-.131.239-.06.48-.108.24-.048.483-.084.243-.036.487-.06t.49-.036Q9.754 0 9.999 0Z"/><path fill="none" stroke="#fff" stroke-linecap="round" stroke-width="10" d="M15 64.02h50M15 39.941h50M15 15.98h50"/></svg>
